<svg xmlns="http://www.w3.org/2000/svg" viewBox="0 0 400 300" width="400" height="300" role="img" aria-label="Silverleaf whitefly egg">
<title>Silverleaf whitefly egg</title>
<rect width="400" height="300" fill="#f3ede1"/>
<circle cx="200" cy="140" r="112" fill="#f3f0e4"/>
<g><path d="M40 232 Q200 214 360 232 Q200 252 40 232Z" fill="#cfe0c2" stroke="#9fbb8e" stroke-width="1.5"></path></g><g stroke="#3a3428" stroke-width="2"><path d="M151.1 229.2 l0 -10" fill="none" stroke-width="1.4"></path><ellipse cx="151.1" cy="215.2" rx="5" ry="7" fill="#f2f0e2"></ellipse><path d="M160.2 223.1 l0 -10" fill="none" stroke-width="1.4"></path><ellipse cx="160.2" cy="209.1" rx="5" ry="7" fill="#f2f0e2"></ellipse><path d="M174 218.7 l0 -10" fill="none" stroke-width="1.4"></path><ellipse cx="174" cy="204.7" rx="5" ry="7" fill="#f2f0e2"></ellipse><path d="M191 216.3 l0 -10" fill="none" stroke-width="1.4"></path><ellipse cx="191" cy="202.3" rx="5" ry="7" fill="#f2f0e2"></ellipse><path d="M209 216.3 l0 -10" fill="none" stroke-width="1.4"></path><ellipse cx="209" cy="202.3" rx="5" ry="7" fill="#f2f0e2"></ellipse><path d="M226 218.7 l0 -10" fill="none" stroke-width="1.4"></path><ellipse cx="226" cy="204.7" rx="5" ry="7" fill="#f2f0e2"></ellipse><path d="M239.8 223.1 l0 -10" fill="none" stroke-width="1.4"></path><ellipse cx="239.8" cy="209.1" rx="5" ry="7" fill="#f2f0e2"></ellipse><path d="M248.9 229.2 l0 -10" fill="none" stroke-width="1.4"></path><ellipse cx="248.9" cy="215.2" rx="5" ry="7" fill="#f2f0e2"></ellipse></g>
<g><rect x="16" y="262" width="169" height="24" rx="12" fill="#3a3428" opacity="0.9"/>
<text x="101" y="278" font-family="Georgia, serif" font-size="12" fill="#f6f1e6" text-anchor="middle">Silverleaf whitefly egg</text></g>
</svg>
