<svg xmlns="http://www.w3.org/2000/svg" viewBox="0 0 400 300" width="400" height="300" role="img" aria-label="Brown planthopper nymph">
<title>Brown planthopper nymph</title>
<rect width="400" height="300" fill="#f3ede1"/>
<circle cx="200" cy="140" r="112" fill="#e7f0ef"/>
<g><rect x="192" y="206" width="16" height="52" rx="7" fill="#b9c7a8"></rect></g><g stroke="#3a3428" stroke-width="2" stroke-linejoin="round"><path d="M200 110 q16 6 18 34 l-3 62 q-15 8 -30 0 l-3 -62 q2 -28 18 -34Z" fill="#8fae6a"></path><path d="M192 196 q-14 0 -22 0" fill="none" stroke="#f2efe0" stroke-width="1.6"></path><path d="M208 196 q14 0 22 0" fill="none" stroke="#f2efe0" stroke-width="1.6"></path><path d="M192 201 q-14 2 -22 5" fill="none" stroke="#f2efe0" stroke-width="1.6"></path><path d="M208 201 q14 2 22 5" fill="none" stroke="#f2efe0" stroke-width="1.6"></path><path d="M192 206 q-14 4 -22 10" fill="none" stroke="#f2efe0" stroke-width="1.6"></path><path d="M208 206 q14 4 22 10" fill="none" stroke="#f2efe0" stroke-width="1.6"></path><path d="M192 211 q-14 6 -22 15" fill="none" stroke="#f2efe0" stroke-width="1.6"></path><path d="M208 211 q14 6 22 15" fill="none" stroke="#f2efe0" stroke-width="1.6"></path><path d="M192 216 q-14 8 -22 20" fill="none" stroke="#f2efe0" stroke-width="1.6"></path><path d="M208 216 q14 8 22 20" fill="none" stroke="#f2efe0" stroke-width="1.6"></path><path d="M190 176 l-10 12 M210 176 l10 12" fill="none" stroke-width="2.2"></path><ellipse cx="200" cy="102" rx="14" ry="10" fill="#7d9a5c"></ellipse><circle cx="195" cy="100" r="2.6" fill="#3a3428" stroke="none"></circle><circle cx="205" cy="100" r="2.6" fill="#3a3428" stroke="none"></circle></g>
<g><rect x="16" y="262" width="169" height="24" rx="12" fill="#3a3428" opacity="0.9"/>
<text x="101" y="278" font-family="Georgia, serif" font-size="12" fill="#f6f1e6" text-anchor="middle">Brown planthopper nymph</text></g>
</svg>
