<svg xmlns="http://www.w3.org/2000/svg" viewBox="0 0 400 300" width="400" height="300" role="img" aria-label="Onion thrips pupa">
<title>Onion thrips pupa</title>
<rect width="400" height="300" fill="#f3ede1"/>
<circle cx="200" cy="140" r="112" fill="#f0e9e0"/>
<g><path d="M40 232 Q200 214 360 232 Q200 252 40 232Z" fill="#cfe0c2" stroke="#9fbb8e" stroke-width="1.5"></path></g><g stroke="#3a3428" stroke-width="2" stroke-linejoin="round"><ellipse cx="200" cy="156" rx="15" ry="34" fill="#c9b273"></ellipse><path d="M186 144 l-14 16" fill="none" stroke-width="1.3"></path><path d="M191 151 l-14 20" fill="none" stroke-width="1.3"></path><path d="M196 158 l-14 24" fill="none" stroke-width="1.3"></path><path d="M201 165 l-14 28" fill="none" stroke-width="1.3"></path><circle cx="200" cy="122" r="9" fill="#b89c5e"></circle><path d="M192 116 q-12 -12 -20 -18 M208 116 q12 -12 20 -18" fill="none" stroke-width="1.4"></path><path d="M192 186 l-7 12 M208 186 l7 12" fill="none" stroke-width="2"></path></g>
<g><rect x="16" y="262" width="131" height="24" rx="12" fill="#3a3428" opacity="0.9"/>
<text x="82" y="278" font-family="Georgia, serif" font-size="12" fill="#f6f1e6" text-anchor="middle">Onion thrips pupa</text></g>
</svg>
